{
  "accessors": [
    {
      "bufferView": 2,
      "componentType": 5126,
      "count": 90,
      "max": [
        -4.110643769816846e-11,
        43.19760513305664,
        79.92125701904297
      ],
      "min": [
        -5.511810779571533,
        -5.24320994607641e-12,
        -1.0244294290900208e-14
      ],
      "type": "VEC3"
    },
    {
      "bufferView": 0,
      "componentType": 5125,
      "count": 304,
      "type": "SCALAR"
    },
    {
      "bufferView": 2,
      "byteOffset": 1080,
      "componentType": 5126,
      "count": 307,
      "max": [
        -4.110643769816846e-11,
        43.19760513305664,
        79.92125701904297
      ],
      "min": [
        -5.511810779571533,
        -5.24320994607641e-12,
        -1.0244294290900208e-14
      ],
      "type": "VEC3"
    },
    {
      "bufferView": 2,
      "byteOffset": 4764,
      "componentType": 5126,
      "count": 307,
      "max": [
        1.0,
        1.0,
        1.0
      ],
      "min": [
        -1.0,
        -1.0,
        -1.0
      ],
      "type": "VEC3"
    },
    {
      "bufferView": 1,
      "componentType": 5126,
      "count": 307,
      "max": [
        1.6070539951324463,
        3.330051898956299
      ],
      "min": [
        -1.6070539951324463,
        -2.2765060778313917e-13
      ],
      "type": "VEC2"
    },
    {
      "bufferView": 0,
      "byteOffset": 1216,
      "componentType": 5125,
      "count": 639,
      "type": "SCALAR"
    },
    {
      "bufferView": 2,
      "byteOffset": 8448,
      "componentType": 5126,
      "count": 1063,
      "max": [
        0.2952759563922882,
        43.19760513305664,
        79.92125701904297
      ],
      "min": [
        -5.511810779571533,
        -5.24320994607641e-12,
        -1.0244294290900208e-14
      ],
      "type": "VEC3"
    },
    {
      "bufferView": 2,
      "byteOffset": 21204,
      "componentType": 5126,
      "count": 1063,
      "max": [
        1.0,
        1.0,
        1.0
      ],
      "min": [
        -1.0,
        -1.0,
        -1.0
      ],
      "type": "VEC3"
    },
    {
      "bufferView": 0,
      "byteOffset": 3772,
      "componentType": 5125,
      "count": 2127,
      "type": "SCALAR"
    },
    {
      "bufferView": 2,
      "byteOffset": 33960,
      "componentType": 5126,
      "count": 16,
      "max": [
        -0.22873984277248383,
        36.87862014770508,
        35.64866638183594
      ],
      "min": [
        -4.013542175292969,
        35.99802780151367,
        34.76807403564453
      ],
      "type": "VEC3"
    },
    {
      "bufferView": 0,
      "byteOffset": 12280,
      "componentType": 5125,
      "count": 32,
      "type": "SCALAR"
    },
    {
      "bufferView": 2,
      "byteOffset": 34152,
      "componentType": 5126,
      "count": 756,
      "max": [
        0.2952759563922882,
        37.78106689453125,
        38.46726989746094
      ],
      "min": [
        -4.537558078765869,
        30.582759857177734,
        31.7191104888916
      ],
      "type": "VEC3"
    },
    {
      "bufferView": 2,
      "byteOffset": 43224,
      "componentType": 5126,
      "count": 756,
      "max": [
        1.0,
        1.0,
        1.0
      ],
      "min": [
        -1.0,
        -1.0,
        -1.0
      ],
      "type": "VEC3"
    },
    {
      "bufferView": 1,
      "byteOffset": 2456,
      "componentType": 5126,
      "count": 756,
      "max": [
        8.63322925567627,
        11.409449577331543
      ],
      "min": [
        -8.63322925567627,
        -7.990555763244629
      ],
      "type": "VEC2"
    },
    {
      "bufferView": 0,
      "byteOffset": 12408,
      "componentType": 5125,
      "count": 1488,
      "type": "SCALAR"
    },
    {
      "bufferView": 2,
      "byteOffset": 52296,
      "componentType": 5126,
      "count": 8,
      "max": [
        -1.4863770008087158,
        39.31656265258789,
        76.77165222167969
      ],
      "min": [
        -2.7559049129486084,
        3.316560983657837,
        -8.454357548239033e-13
      ],
      "type": "VEC3"
    },
    {
      "bufferView": 0,
      "byteOffset": 18360,
      "componentType": 5125,
      "count": 24,
      "type": "SCALAR"
    },
    {
      "bufferView": 2,
      "byteOffset": 52392,
      "componentType": 5126,
      "count": 8,
      "max": [
        -1.4863770008087158,
        39.31656265258789,
        76.77165222167969
      ],
      "min": [
        -2.7559049129486084,
        3.316560983657837,
        -8.454357548239033e-13
      ],
      "type": "VEC3"
    },
    {
      "bufferView": 2,
      "byteOffset": 52488,
      "componentType": 5126,
      "count": 8,
      "max": [
        1.0,
        1.489901843391983e-12,
        9.779567563747427e-13
      ],
      "min": [
        -1.0,
        -1.489901843391983e-12,
        -9.779567563747427e-13
      ],
      "type": "VEC3"
    },
    {
      "bufferView": 1,
      "byteOffset": 8504,
      "componentType": 5126,
      "count": 8,
      "max": [
        1.0,
        1.0
      ],
      "min": [
        -1.0,
        -1.768942002016388e-26
      ],
      "type": "VEC2"
    },
    {
      "bufferView": 0,
      "byteOffset": 18456,
      "componentType": 5125,
      "count": 12,
      "type": "SCALAR"
    },
    {
      "bufferView": 2,
      "byteOffset": 52584,
      "componentType": 5126,
      "count": 3208,
      "max": [
        -0.8268645405769348,
        39.31656265258789,
        76.77165222167969
      ],
      "min": [
        -2.7559049129486084,
        2.915642499923706,
        -8.454357548239033e-13
      ],
      "type": "VEC3"
    },
    {
      "bufferView": 2,
      "byteOffset": 91080,
      "componentType": 5126,
      "count": 3208,
      "max": [
        1.0,
        1.0,
        1.0
      ],
      "min": [
        -1.0,
        -1.0,
        -1.0
      ],
      "type": "VEC3"
    },
    {
      "bufferView": 1,
      "byteOffset": 8568,
      "componentType": 5126,
      "count": 3208,
      "max": [
        1.5,
        3.1988189220428467
      ],
      "min": [
        -1.5,
        -0.008791003376245499
      ],
      "type": "VEC2"
    },
    {
      "bufferView": 0,
      "byteOffset": 18504,
      "componentType": 5125,
      "count": 6012,
      "type": "SCALAR"
    },
    {
      "bufferView": 2,
      "byteOffset": 129576,
      "componentType": 5126,
      "count": 432,
      "max": [
        -0.82686448097229,
        3.5790200233459473,
        68.94832611083984
      ],
      "min": [
        -1.488168478012085,
        2.9177160263061523,
        7.6009039878845215
      ],
      "type": "VEC3"
    },
    {
      "bufferView": 0,
      "byteOffset": 42552,
      "componentType": 5125,
      "count": 864,
      "type": "SCALAR"
    },
    {
      "bufferView": 2,
      "byteOffset": 134760,
      "componentType": 5126,
      "count": 2592,
      "max": [
        -0.82686448097229,
        3.5790200233459473,
        68.94832611083984
      ],
      "min": [
        -1.488168478012085,
        2.9177160263061523,
        7.6009039878845215
      ],
      "type": "VEC3"
    },
    {
      "bufferView": 2,
      "byteOffset": 165864,
      "componentType": 5126,
      "count": 2592,
      "max": [
        0.9944422841072083,
        0.9944422841072083,
        1.0
      ],
      "min": [
        -0.9944422841072083,
        -0.9944422841072083,
        -1.0
      ],
      "type": "VEC3"
    },
    {
      "bufferView": 1,
      "byteOffset": 34232,
      "componentType": 5126,
      "count": 2592,
      "max": [
        0.04373703896999359,
        0.07407406717538834
      ],
      "min": [
        -0.033787138760089874,
        0.0
      ],
      "type": "VEC2"
    },
    {
      "bufferView": 0,
      "byteOffset": 46008,
      "componentType": 5125,
      "count": 6696,
      "type": "SCALAR"
    },
    {
      "bufferView": 2,
      "byteOffset": 196968,
      "componentType": 5126,
      "count": 1584,
      "max": [
        -0.8268645405769348,
        3.5779168605804443,
        39.9791145324707
      ],
      "min": [
        -1.4902889728546143,
        2.915642499923706,
        35.79253387451172
      ],
      "type": "VEC3"
    },
    {
      "bufferView": 2,
      "byteOffset": 215976,
      "componentType": 5126,
      "count": 1584,
      "max": [
        0.9998934268951416,
        0.9998927712440491,
        1.0
      ],
      "min": [
        -0.9998934268951416,
        -0.9998927712440491,
        -1.0
      ],
      "type": "VEC3"
    },
    {
      "bufferView": 1,
      "byteOffset": 54968,
      "componentType": 5126,
      "count": 1584,
      "max": [
        0.15241679549217224,
        0.1565271019935608
      ],
      "min": [
        -0.1565271019935608,
        -0.05274602025747299
      ],
      "type": "VEC2"
    },
    {
      "bufferView": 0,
      "byteOffset": 72792,
      "componentType": 5125,
      "count": 2976,
      "type": "SCALAR"
    }
  ],
  "asset": {
    "extras": {
      "author": "tprevis (https://sketchfab.com/tprevis)",
      "license": "SKETCHFAB Standard (https://sketchfab.com/licenses)",
      "source": "https://sketchfab.com/3d-models/door-36-inch-15jan24-1b141992d7434a968f85b3dd28d96ebf",
      "title": "Door 36 Inch 15JAN24"
    },
    "generator": "Sketchfab-15.59.0",
    "version": "2.0"
  },
  "bufferViews": [
    {
      "buffer": 0,
      "byteLength": 84696,
      "name": "floatBufferViews",
      "target": 34963
    },
    {
      "buffer": 0,
      "byteLength": 67640,
      "byteOffset": 84696,
      "byteStride": 8,
      "name": "floatBufferViews",
      "target": 34962
    },
    {
      "buffer": 0,
      "byteLength": 234984,
      "byteOffset": 152336,
      "byteStride": 12,
      "name": "floatBufferViews",
      "target": 34962
    }
  ],
  "buffers": [
    {
      "byteLength": 387320,
      "uri": "scene.bin"
    }
  ],
  "images": [
    {
      "uri": "textures/lighter_bamboo_baseColor.jpeg"
    },
    {
      "uri": "textures/Metal_Corrogated_Shiny_1_baseColor.jpeg"
    },
    {
      "uri": "textures/36_WHT_4090470_baseColor.jpeg"
    },
    {
      "uri": "textures/Wood_Bamboo_Medium_baseColor.jpeg"
    },
    {
      "uri": "textures/Metal_Aluminum_Anodized_3_baseColor.jpeg"
    },
    {
      "uri": "textures/Metal_Corrogated_Shiny_2_baseColor.jpeg"
    }
  ],
  "materials": [
    {
      "name": "edge_color24714660255",
      "pbrMetallicRoughness": {
        "metallicFactor": 0.0,
        "roughnessFactor": 0.6
      }
    },
    {
      "name": "lighter_bamboo",
      "pbrMetallicRoughness": {
        "baseColorTexture": {
          "index": 0
        },
        "metallicFactor": 0.0,
        "roughnessFactor": 0.6
      }
    },
    {
      "name": "Color_F01",
      "pbrMetallicRoughness": {
        "baseColorFactor": [
          0.498039,
          1.0,
          0.0,
          1.0
        ],
        "metallicFactor": 0.0,
        "roughnessFactor": 0.6
      }
    },
    {
      "name": "edge_color193193193255",
      "pbrMetallicRoughness": {
        "metallicFactor": 0.0,
        "roughnessFactor": 0.6
      }
    },
    {
      "name": "Metal_Corrogated_Shiny_1",
      "pbrMetallicRoughness": {
        "baseColorTexture": {
          "index": 1
        },
        "metallicFactor": 0.0,
        "roughnessFactor": 0.6
      }
    },
    {
      "name": "edge_color177105430",
      "pbrMetallicRoughness": {
        "metallicFactor": 0.0,
        "roughnessFactor": 0.6
      }
    },
    {
      "name": "36_WHT_4090470",
      "pbrMetallicRoughness": {
        "baseColorTexture": {
          "index": 2
        },
        "metallicFactor": 0.0,
        "roughnessFactor": 0.6
      }
    },
    {
      "name": "Wood_Bamboo_Medium",
      "pbrMetallicRoughness": {
        "baseColorTexture": {
          "index": 3
        },
        "metallicFactor": 0.0,
        "roughnessFactor": 0.6
      }
    },
    {
      "name": "edge_color2022092190",
      "pbrMetallicRoughness": {
        "metallicFactor": 0.0,
        "roughnessFactor": 0.6
      }
    },
    {
      "name": "Metal_Aluminum_Anodized_3",
      "pbrMetallicRoughness": {
        "baseColorTexture": {
          "index": 4
        },
        "metallicFactor": 0.0,
        "roughnessFactor": 0.6
      }
    },
    {
      "name": "Metal_Corrogated_Shiny_2",
      "pbrMetallicRoughness": {
        "baseColorTexture": {
          "index": 5
        },
        "metallicFactor": 0.0,
        "roughnessFactor": 0.6
      }
    }
  ],
  "meshes": [
    {
      "name": "Material4",
      "primitives": [
        {
          "attributes": {
            "POSITION": 0
          },
          "indices": 1,
          "material": 0,
          "mode": 1
        }
      ]
    },
    {
      "name": "Material2",
      "primitives": [
        {
          "attributes": {
            "NORMAL": 3,
            "POSITION": 2,
            "TEXCOORD_0": 4
          },
          "indices": 5,
          "material": 1,
          "mode": 4
        }
      ]
    },
    {
      "name": "Material2",
      "primitives": [
        {
          "attributes": {
            "NORMAL": 7,
            "POSITION": 6
          },
          "indices": 8,
          "material": 2,
          "mode": 4
        }
      ]
    },
    {
      "name": "Material4",
      "primitives": [
        {
          "attributes": {
            "POSITION": 9
          },
          "indices": 10,
          "material": 3,
          "mode": 1
        }
      ]
    },
    {
      "name": "Material3",
      "primitives": [
        {
          "attributes": {
            "NORMAL": 12,
            "POSITION": 11,
            "TEXCOORD_0": 13
          },
          "indices": 14,
          "material": 4,
          "mode": 4
        }
      ]
    },
    {
      "name": "Material4",
      "primitives": [
        {
          "attributes": {
            "POSITION": 15
          },
          "indices": 16,
          "material": 5,
          "mode": 1
        }
      ]
    },
    {
      "name": "Material2",
      "primitives": [
        {
          "attributes": {
            "NORMAL": 18,
            "POSITION": 17,
            "TEXCOORD_0": 19
          },
          "indices": 20,
          "material": 6,
          "mode": 4
        }
      ]
    },
    {
      "name": "Material2",
      "primitives": [
        {
          "attributes": {
            "NORMAL": 22,
            "POSITION": 21,
            "TEXCOORD_0": 23
          },
          "indices": 24,
          "material": 7,
          "mode": 4
        }
      ]
    },
    {
      "name": "Material3",
      "primitives": [
        {
          "attributes": {
            "POSITION": 25
          },
          "indices": 26,
          "material": 8,
          "mode": 1
        }
      ]
    },
    {
      "name": "Material2",
      "primitives": [
        {
          "attributes": {
            "NORMAL": 28,
            "POSITION": 27,
            "TEXCOORD_0": 29
          },
          "indices": 30,
          "material": 9,
          "mode": 4
        }
      ]
    },
    {
      "name": "Material2",
      "primitives": [
        {
          "attributes": {
            "NORMAL": 32,
            "POSITION": 31,
            "TEXCOORD_0": 33
          },
          "indices": 34,
          "material": 10,
          "mode": 4
        }
      ]
    }
  ],
  "nodes": [
    {
      "children": [
        1
      ],
      "matrix": [
        1.0,
        0.0,
        0.0,
        0.0,
        0.0,
        2.220446049250313e-16,
        -1.0,
        0.0,
        0.0,
        1.0,
        2.220446049250313e-16,
        0.0,
        0.0,
        0.0,
        0.0,
        1.0
      ],
      "name": "Sketchfab_model"
    },
    {
      "children": [
        2,
        3,
        4,
        5,
        6,
        7,
        8,
        9,
        10,
        11,
        12,
        13
      ],
      "name": "Collada visual scene group"
    },
    {
      "mesh": 0,
      "name": "Material4"
    },
    {
      "mesh": 1,
      "name": "Material2"
    },
    {
      "mesh": 2,
      "name": "Material2"
    },
    {
      "mesh": 3,
      "name": "Material4"
    },
    {
      "mesh": 4,
      "name": "Material3"
    },
    {
      "mesh": 5,
      "name": "Material4"
    },
    {
      "mesh": 6,
      "name": "Material2"
    },
    {
      "mesh": 7,
      "name": "Material2"
    },
    {
      "mesh": 8,
      "name": "Material3"
    },
    {
      "mesh": 9,
      "name": "Material2"
    },
    {
      "mesh": 10,
      "name": "Material2"
    },
    {
      "children": [
        14
      ],
      "name": "SketchUp"
    },
    {
      "children": [
        15
      ],
      "matrix": [
        0.2442753,
        0.9697059,
        0.0,
        0.0,
        -0.372239,
        0.09376947,
        0.923388,
        0.0,
        0.8954148,
        -0.2255609,
        0.3838679,
        0.0,
        197.1181,
        -93.76342,
        157.3044,
        1.0
      ],
      "name": "skp_camera_Last_Saved_SketchUp_View"
    },
    {
      "name": "ID1"
    }
  ],
  "samplers": [
    {
      "magFilter": 9729,
      "minFilter": 9987,
      "wrapS": 10497,
      "wrapT": 10497
    }
  ],
  "scene": 0,
  "scenes": [
    {
      "name": "Sketchfab_Scene",
      "nodes": [
        0
      ]
    }
  ],
  "textures": [
    {
      "sampler": 0,
      "source": 0
    },
    {
      "sampler": 0,
      "source": 1
    },
    {
      "sampler": 0,
      "source": 2
    },
    {
      "sampler": 0,
      "source": 3
    },
    {
      "sampler": 0,
      "source": 4
    },
    {
      "sampler": 0,
      "source": 5
    }
  ]
}
