{
  "accessors": [
    {
      "bufferView": 2,
      "componentType": 5126,
      "count": 234,
      "max": [
        174.80520629882813,
        -834.7548217773438,
        420.64788818359375
      ],
      "min": [
        -94.97470092773438,
        -1076.5093994140625,
        377.777587890625
      ],
      "type": "VEC3"
    },
    {
      "bufferView": 2,
      "byteOffset": 2808,
      "componentType": 5126,
      "count": 234,
      "max": [
        0.22991299629211426,
        0.9993435740470886,
        0.997418999671936
      ],
      "min": [
        -0.22991299629211426,
        -0.9991632699966431,
        -0.997418999671936
      ],
      "type": "VEC3"
    },
    {
      "bufferView": 1,
      "componentType": 5126,
      "count": 234,
      "max": [
        1.097499966621399,
        0.4009000062942505
      ],
      "min": [
        0.7080000042915344,
        0.0608999989926815
      ],
      "type": "VEC2"
    },
    {
      "bufferView": 0,
      "componentType": 5125,
      "count": 1152,
      "type": "SCALAR"
    },
    {
      "bufferView": 2,
      "byteOffset": 5616,
      "componentType": 5126,
      "count": 24076,
      "max": [
        322.9507141113281,
        -673.13427734375,
        797.86279296875
      ],
      "min": [
        -245.44540405273438,
        -1224.392333984375,
        404.7550964355469
      ],
      "type": "VEC3"
    },
    {
      "bufferView": 2,
      "byteOffset": 294528,
      "componentType": 5126,
      "count": 24076,
      "max": [
        0.9998456835746765,
        0.9999885559082031,
        0.9999955892562866
      ],
      "min": [
        -0.9998456835746765,
        -0.9999885559082031,
        -0.9999903440475464
      ],
      "type": "VEC3"
    },
    {
      "bufferView": 1,
      "byteOffset": 1872,
      "componentType": 5126,
      "count": 24076,
      "max": [
        1.9239000082015991,
        1.9359999895095825
      ],
      "min": [
        -0.9301999807357788,
        -0.9359999895095825
      ],
      "type": "VEC2"
    },
    {
      "bufferView": 0,
      "byteOffset": 4608,
      "componentType": 5125,
      "count": 141312,
      "type": "SCALAR"
    },
    {
      "bufferView": 2,
      "byteOffset": 583440,
      "componentType": 5126,
      "count": 65532,
      "max": [
        367.8739013671875,
        -636.3447265625,
        412.7684020996094
      ],
      "min": [
        -270.1642150878906,
        -1275.9996337890625,
        0.0
      ],
      "type": "VEC3"
    },
    {
      "bufferView": 2,
      "byteOffset": 1369824,
      "componentType": 5126,
      "count": 65532,
      "max": [
        0.9999432563781738,
        0.9999687671661377,
        0.9999845027923584
      ],
      "min": [
        -0.9999432563781738,
        -0.995965301990509,
        -1.0
      ],
      "type": "VEC3"
    },
    {
      "bufferView": 1,
      "byteOffset": 194480,
      "componentType": 5126,
      "count": 65532,
      "max": [
        1.2293000221252441,
        1.2269999980926514
      ],
      "min": [
        -0.22930000722408295,
        -0.2287999987602234
      ],
      "type": "VEC2"
    },
    {
      "bufferView": 0,
      "byteOffset": 569856,
      "componentType": 5125,
      "count": 374337,
      "type": "SCALAR"
    },
    {
      "bufferView": 2,
      "byteOffset": 2156208,
      "componentType": 5126,
      "count": 5281,
      "max": [
        367.6659851074219,
        -636.38427734375,
        357.56170654296875
      ],
      "min": [
        14.02910041809082,
        -981.9754028320313,
        0.00019999999494757503
      ],
      "type": "VEC3"
    },
    {
      "bufferView": 2,
      "byteOffset": 2219580,
      "componentType": 5126,
      "count": 5281,
      "max": [
        0.9853352308273315,
        0.9782649874687195,
        0.3322027921676636
      ],
      "min": [
        -0.9838905334472656,
        -0.986056387424469,
        -1.0
      ],
      "type": "VEC3"
    },
    {
      "bufferView": 1,
      "byteOffset": 718736,
      "componentType": 5126,
      "count": 5281,
      "max": [
        1.2272000312805176,
        1.051900029182434
      ],
      "min": [
        -0.21940000355243683,
        -0.22100000083446503
      ],
      "type": "VEC2"
    },
    {
      "bufferView": 0,
      "byteOffset": 2067204,
      "componentType": 5125,
      "count": 25023,
      "type": "SCALAR"
    }
  ],
  "asset": {
    "extras": {
      "author": "shavkatjonruvojiddinov7 (https://sketchfab.com/shavkatjonruvojiddinov7)",
      "license": "CC-BY-4.0 (http://creativecommons.org/licenses/by/4.0/)",
      "source": "https://sketchfab.com/3d-models/chair-c13a6cd3ce8246c4826365b83086d555",
      "title": "Chair"
    },
    "generator": "Sketchfab-14.63.0",
    "version": "2.0"
  },
  "bufferViews": [
    {
      "buffer": 0,
      "byteLength": 2167296,
      "name": "floatBufferViews",
      "target": 34963
    },
    {
      "buffer": 0,
      "byteLength": 760984,
      "byteOffset": 2167296,
      "byteStride": 8,
      "name": "floatBufferViews",
      "target": 34962
    },
    {
      "buffer": 0,
      "byteLength": 2282952,
      "byteOffset": 2928280,
      "byteStride": 12,
      "name": "floatBufferViews",
      "target": 34962
    }
  ],
  "buffers": [
    {
      "byteLength": 5211232,
      "uri": "scene.bin"
    }
  ],
  "materials": [
    {
      "doubleSided": true,
      "name": "wire_115115115",
      "pbrMetallicRoughness": {
        "baseColorFactor": [
          0.588,
          0.588,
          0.588,
          1.0
        ],
        "metallicFactor": 0.0
      }
    },
    {
      "doubleSided": true,
      "name": "wire_149149149",
      "pbrMetallicRoughness": {
        "baseColorFactor": [
          0.5843,
          0.5843,
          0.5843,
          1.0
        ],
        "metallicFactor": 0.0,
        "roughnessFactor": 0.9167555019498095
      }
    }
  ],
  "meshes": [
    {
      "name": "Object_0",
      "primitives": [
        {
          "attributes": {
            "NORMAL": 1,
            "POSITION": 0,
            "TEXCOORD_0": 2
          },
          "indices": 3,
          "material": 0,
          "mode": 4
        }
      ]
    },
    {
      "name": "Object_1",
      "primitives": [
        {
          "attributes": {
            "NORMAL": 5,
            "POSITION": 4,
            "TEXCOORD_0": 6
          },
          "indices": 7,
          "material": 1,
          "mode": 4
        }
      ]
    },
    {
      "name": "Object_2",
      "primitives": [
        {
          "attributes": {
            "NORMAL": 9,
            "POSITION": 8,
            "TEXCOORD_0": 10
          },
          "indices": 11,
          "material": 1,
          "mode": 4
        }
      ]
    },
    {
      "name": "Object_3",
      "primitives": [
        {
          "attributes": {
            "NORMAL": 13,
            "POSITION": 12,
            "TEXCOORD_0": 14
          },
          "indices": 15,
          "material": 1,
          "mode": 4
        }
      ]
    }
  ],
  "nodes": [
    {
      "children": [
        1
      ],
      "matrix": [
        1.0,
        0.0,
        0.0,
        0.0,
        0.0,
        2.220446049250313e-16,
        -1.0,
        0.0,
        0.0,
        1.0,
        2.220446049250313e-16,
        0.0,
        0.0,
        0.0,
        0.0,
        1.0
      ],
      "name": "Sketchfab_model"
    },
    {
      "children": [
        2,
        3,
        4,
        5
      ],
      "name": "shair.obj.cleaner.materialmerger.gles"
    },
    {
      "mesh": 0,
      "name": "Object_2"
    },
    {
      "mesh": 1,
      "name": "Object_3"
    },
    {
      "mesh": 2,
      "name": "Object_4"
    },
    {
      "mesh": 3,
      "name": "Object_5"
    }
  ],
  "scene": 0,
  "scenes": [
    {
      "name": "Sketchfab_Scene",
      "nodes": [
        0
      ]
    }
  ]
}
