{
  "accessors": [
    {
      "bufferView": 2,
      "componentType": 5126,
      "count": 28024,
      "max": [
        0.9532722234725952,
        1.180259346961975,
        2.126678466796875
      ],
      "min": [
        -0.9505668878555298,
        -1.1801543235778809,
        -0.05178448185324669
      ],
      "type": "VEC3"
    },
    {
      "bufferView": 2,
      "byteOffset": 336288,
      "componentType": 5126,
      "count": 28024,
      "max": [
        1.0,
        1.0,
        1.0
      ],
      "min": [
        -1.0,
        -1.0,
        -0.9999746084213257
      ],
      "type": "VEC3"
    },
    {
      "bufferView": 3,
      "componentType": 5126,
      "count": 28024,
      "max": [
        1.0,
        1.0,
        1.0,
        1.0
      ],
      "min": [
        -0.9999998807907104,
        -1.0,
        -1.0,
        -1.0
      ],
      "type": "VEC4"
    },
    {
      "bufferView": 1,
      "componentType": 5126,
      "count": 28024,
      "max": [
        0.9962725639343262,
        0.9924095273017883
      ],
      "min": [
        0.003727436065673828,
        0.003727436065673828
      ],
      "type": "VEC2"
    },
    {
      "bufferView": 1,
      "byteOffset": 224192,
      "componentType": 5126,
      "count": 28024,
      "max": [
        0.9962725639343262,
        0.9924095273017883
      ],
      "min": [
        0.003727436065673828,
        0.003727436065673828
      ],
      "type": "VEC2"
    },
    {
      "bufferView": 1,
      "byteOffset": 448384,
      "componentType": 5126,
      "count": 28024,
      "max": [
        0.9962725639343262,
        0.9924095273017883
      ],
      "min": [
        0.003727436065673828,
        0.003727436065673828
      ],
      "type": "VEC2"
    },
    {
      "bufferView": 0,
      "componentType": 5125,
      "count": 122577,
      "type": "SCALAR"
    }
  ],
  "asset": {
    "extras": {
      "author": "Moryak (https://sketchfab.com/_moryak_)",
      "license": "CC-BY-4.0 (http://creativecommons.org/licenses/by/4.0/)",
      "source": "https://sketchfab.com/3d-models/bed-cream-colored-low-poly-ae5ae1da7dd444abae8ea14d9635a8dc",
      "title": "Bed cream-colored Low poly"
    },
    "generator": "Sketchfab-15.49.0",
    "version": "2.0"
  },
  "bufferViews": [
    {
      "buffer": 0,
      "byteLength": 490308,
      "name": "floatBufferViews",
      "target": 34963
    },
    {
      "buffer": 0,
      "byteLength": 672576,
      "byteOffset": 490308,
      "byteStride": 8,
      "name": "floatBufferViews",
      "target": 34962
    },
    {
      "buffer": 0,
      "byteLength": 672576,
      "byteOffset": 1162884,
      "byteStride": 12,
      "name": "floatBufferViews",
      "target": 34962
    },
    {
      "buffer": 0,
      "byteLength": 448384,
      "byteOffset": 1835460,
      "byteStride": 16,
      "name": "floatBufferViews",
      "target": 34962
    }
  ],
  "buffers": [
    {
      "byteLength": 2283844,
      "uri": "scene.bin"
    }
  ],
  "extensionsUsed": [
    "KHR_materials_specular"
  ],
  "images": [
    {
      "uri": "textures/aeneoclsbdg000005_baseColor.png"
    },
    {
      "uri": "textures/aeneoclsbdg000005_metallicRoughness.png"
    },
    {
      "uri": "textures/aeneoclsbdg000005_normal.png"
    }
  ],
  "materials": [
    {
      "doubleSided": true,
      "extensions": {
        "KHR_materials_specular": {
          "specularColorFactor": [
            1.0,
            1.0,
            1.0
          ],
          "specularFactor": 0.059428752544769654
        }
      },
      "name": "aeneoclsbdg000005",
      "normalTexture": {
        "index": 2
      },
      "occlusionTexture": {
        "index": 1
      },
      "pbrMetallicRoughness": {
        "baseColorTexture": {
          "index": 0
        },
        "metallicRoughnessTexture": {
          "index": 1
        }
      }
    }
  ],
  "meshes": [
    {
      "name": "aeneoclsbdg000005_aeneoclsbdg000005_0",
      "primitives": [
        {
          "attributes": {
            "NORMAL": 1,
            "POSITION": 0,
            "TANGENT": 2,
            "TEXCOORD_0": 3,
            "TEXCOORD_1": 4,
            "TEXCOORD_2": 5
          },
          "indices": 6,
          "material": 0,
          "mode": 4
        }
      ]
    }
  ],
  "nodes": [
    {
      "children": [
        1
      ],
      "matrix": [
        1.0,
        0.0,
        0.0,
        0.0,
        0.0,
        2.220446049250313e-16,
        -1.0,
        0.0,
        0.0,
        1.0,
        2.220446049250313e-16,
        0.0,
        0.0,
        0.0,
        0.0,
        1.0
      ],
      "name": "Sketchfab_model"
    },
    {
      "children": [
        2
      ],
      "matrix": [
        0.009999999776482582,
        0.0,
        0.0,
        0.0,
        0.0,
        0.0,
        0.009999999776482582,
        0.0,
        0.0,
        -0.009999999776482582,
        0.0,
        0.0,
        0.0,
        0.0,
        0.0,
        1.0
      ],
      "name": "3851f3069b644303bad0005f37522da3.fbx"
    },
    {
      "children": [
        3
      ],
      "name": "RootNode"
    },
    {
      "children": [
        4
      ],
      "matrix": [
        96.12157440185547,
        0.0,
        0.0,
        0.0,
        0.0,
        -1.6151169245240417e-05,
        -99.13516998290885,
        0.0,
        0.0,
        29.837549209594332,
        -4.861153788614376e-06,
        0.0,
        0.0,
        -8.06605052947998,
        7.746469918856747e-07,
        1.0
      ],
      "name": "aeneoclsbdg000005"
    },
    {
      "mesh": 0,
      "name": "aeneoclsbdg000005_aeneoclsbdg000005_0"
    }
  ],
  "samplers": [
    {
      "magFilter": 9729,
      "minFilter": 9987,
      "wrapS": 10497,
      "wrapT": 10497
    }
  ],
  "scene": 0,
  "scenes": [
    {
      "name": "Sketchfab_Scene",
      "nodes": [
        0
      ]
    }
  ],
  "textures": [
    {
      "sampler": 0,
      "source": 0
    },
    {
      "sampler": 0,
      "source": 1
    },
    {
      "sampler": 0,
      "source": 2
    }
  ]
}
